STARTFONT 2.1
FONT -Monotype-Courier-Regular-I-Normal--36-360-75-75-M-175-iso8859-9
SIZE 36 75 75
FONTBOUNDINGBOX 27 37 0 -7

STARTPROPERTIES 24
FOUNDRY "Monotype"
FAMILY_NAME "Courier"
WEIGHT_NAME "Regular"
SLANT "I"
SETWIDTH_NAME "Normal"
ADD_STYLE_NAME ""
PIXEL_SIZE 36
POINT_SIZE 360
RESOLUTION_X 75
RESOLUTION_Y 75
SPACING "M"
AVERAGE_WIDTH 175
CHARSET_REGISTRY "iso8859"
CHARSET_ENCODING "9"
FACE_NAME "Courier Italic ISO Latin5"
_DEC_DEVICE_FONTNAMES "PS=courier-it-lat5"
COPYRIGHT "Copyright (c) 1993 Monotype Typography Ltd."
CAP_HEIGHT 21
X_HEIGHT 15
WEIGHT 10
QUAD_WIDTH 22
DEFAULT_CHAR 160
FONT_DESCENT 7
FONT_ASCENT 30
ENDPROPERTIES

CHARS 191

STARTCHAR space
ENCODING 32
SWIDTH 600 0
DWIDTH 23 0
BBX 0 0 0 0
BITMAP
ENDCHAR

STARTCHAR exclam
ENCODING 33
SWIDTH 600 0
DWIDTH 23 0
BBX 9 24 9 0
BITMAP
0380
0700
0700
0700
0700
0600
0600
0E00
0E00
0C00
0C00
0C00
0C00
0800
1800
0800
0000
0000
0000
0000
7000
F800
F800
7000
ENDCHAR

STARTCHAR quotedbl
ENCODING 34
SWIDTH 600 0
DWIDTH 23 0
BBX 14 10 9 13
BITMAP
7C7C
7878
7878
7878
7070
F0F0
E0E0
E0E0
E0E0
C0C0
ENDCHAR

STARTCHAR numbersign
ENCODING 35
SWIDTH 600 0
DWIDTH 23 0
BBX 17 28 5 -3
BITMAP
004300
006300
004200
00C600
00C600
008400
008400
018C00
018C00
010800
3FFF80
1FFF80
021800
021000
063000
042000
FFFE00
7FFE00
0C6000
084000
084000
18C000
18C000
108000
308000
318000
318000
210000
ENDCHAR

STARTCHAR dollar
ENCODING 36
SWIDTH 600 0
DWIDTH 23 0
BBX 17 29 5 -4
BITMAP
001000
003000
002000
01FD00
038F80
060100
0C0300
180100
180000
180000
1C0000
0F0000
03F000
003C00
000E00
000600
000600
400600
C00400
C00C00
F03800
BFE000
0F8000
020000
060000
060000
060000
040000
040000
ENDCHAR

STARTCHAR percent
ENCODING 37
SWIDTH 600 0
DWIDTH 23 0
BBX 18 24 6 0
BITMAP
01E000
063000
0C1800
080800
100800
100800
101800
183000
0C6000
078040
000380
003C00
01E000
1E0000
F00000
00F800
018400
020200
060200
040200
040600
040C00
021800
01E000
ENDCHAR

STARTCHAR ampersand
ENCODING 38
SWIDTH 600 0
DWIDTH 23 0
BBX 16 21 5 -1
BITMAP
0078
01FE
0304
0300
0600
0600
0600
0200
0300
0F00
1987
3186
608C
40C8
C0D8
C070
C060
C070
61DC
3F9C
0E00
ENDCHAR

STARTCHAR quoteright
ENCODING 39
SWIDTH 600 0
DWIDTH 23 0
BBX 10 11 8 13
BITMAP
07C0
0F80
0F00
1F00
1E00
3C00
3800
7800
7000
E000
C000
ENDCHAR

STARTCHAR parenleft
ENCODING 40
SWIDTH 600 0
DWIDTH 23 0
BBX 9 29 13 -5
BITMAP
0080
0180
0300
0300
0600
0C00
0C00
1800
3800
3000
3000
7000
6000
6000
E000
C000
C000
C000
C000
C000
C000
C000
C000
6000
6000
6000
6000
3000
2000
ENDCHAR

STARTCHAR parenright
ENCODING 41
SWIDTH 600 0
DWIDTH 23 0
BBX 9 29 5 -5
BITMAP
0200
0600
0300
0300
0300
0380
0180
0180
0180
0180
0180
0180
0180
0180
0380
0380
0300
0300
0700
0600
0E00
0C00
1800
1800
3000
6000
6000
C000
8000
ENDCHAR

STARTCHAR asterisk
ENCODING 42
SWIDTH 600 0
DWIDTH 23 0
BBX 14 14 8 10
BITMAP
0080
0180
0180
0100
0100
E31C
7FF8
0FC0
0700
0D80
1980
30C0
60C0
4040
ENDCHAR

STARTCHAR plus
ENCODING 43
SWIDTH 600 0
DWIDTH 23 0
BBX 18 20 5 1
BITMAP
002000
002000
002000
006000
006000
004000
004000
00C000
00C000
FFFFC0
FFFF80
008000
018000
018000
018000
010000
010000
030000
030000
010000
ENDCHAR

STARTCHAR comma
ENCODING 44
SWIDTH 600 0
DWIDTH 23 0
BBX 10 12 7 -6
BITMAP
07C0
0F80
0F00
1F00
1E00
3C00
3800
7000
7000
E000
C000
4000
ENDCHAR

STARTCHAR minus
ENCODING 45
SWIDTH 600 0
DWIDTH 23 0
BBX 18 2 5 10
BITMAP
FFFFC0
FFFF80
ENDCHAR

STARTCHAR period
ENCODING 46
SWIDTH 600 0
DWIDTH 23 0
BBX 6 5 9 0
BITMAP
38
7C
FC
F8
70
ENDCHAR

STARTCHAR slash
ENCODING 47
SWIDTH 600 0
DWIDTH 23 0
BBX 20 29 4 -3
BITMAP
000010
000030
000060
000040
0000C0
000180
000300
000300
000600
000C00
000800
001800
003000
002000
006000
00C000
008000
018000
030000
020000
060000
0C0000
180000
180000
300000
600000
600000
C00000
800000
ENDCHAR

STARTCHAR zero
ENCODING 48
SWIDTH 600 0
DWIDTH 23 0
BBX 16 24 6 0
BITMAP
0070
01FC
0706
0C06
0803
1803
1003
3003
2003
2003
6002
6002
4006
4006
C004
C004
C00C
C008
C018
C010
6030
70E0
3F80
0E00
ENDCHAR

STARTCHAR one
ENCODING 49
SWIDTH 600 0
DWIDTH 23 0
BBX 15 24 4 0
BITMAP
0008
00F8
07D8
0610
0010
0030
0030
0030
0020
0020
0060
0060
0060
0040
0040
00C0
00C0
00C0
0080
0080
0180
0180
FFFE
7FFC
ENDCHAR

STARTCHAR two
ENCODING 50
SWIDTH 600 0
DWIDTH 23 0
BBX 19 24 3 0
BITMAP
001E00
00FF80
01C1C0
0300C0
060060
040060
040060
000040
0000C0
000180
000300
000600
000C00
001800
007000
00E000
018000
030000
0E0000
180000
300000
E00300
FFFE00
FFFE00
ENDCHAR

STARTCHAR three
ENCODING 51
SWIDTH 600 0
DWIDTH 23 0
BBX 19 24 4 0
BITMAP
001E00
00FF80
0180C0
030060
000060
000060
000060
0000C0
000180
000300
007E00
007E00
000700
000380
000180
000180
000180
000180
000300
000200
C00600
701C00
3FF000
078000
ENDCHAR

STARTCHAR four
ENCODING 52
SWIDTH 600 0
DWIDTH 23 0
BBX 16 24 5 0
BITMAP
000F
000F
001A
0032
0066
00C6
0086
0184
030C
060C
0C0C
0808
1808
3018
4018
7FFC
FFFE
0010
0030
0030
0030
0020
03F8
03F8
ENDCHAR

STARTCHAR five
ENCODING 53
SWIDTH 600 0
DWIDTH 23 0
BBX 18 24 4 0
BITMAP
03FFC0
03FFC0
030000
020000
020000
060000
060000
040000
047800
0FFE00
0E0700
000380
000180
000180
000180
000180
000100
000300
000300
400600
E00C00
703800
1FF000
078000
ENDCHAR

STARTCHAR six
ENCODING 54
SWIDTH 600 0
DWIDTH 23 0
BBX 17 24 7 0
BITMAP
000F00
007F80
01C000
070000
0C0000
180000
100000
300000
600000
41C000
47F000
DC1800
D00800
E00C00
E00C00
C00C00
800C00
800800
C01800
C01000
403000
60E000
3F8000
0E0000
ENDCHAR

STARTCHAR seven
ENCODING 55
SWIDTH 600 0
DWIDTH 23 0
BBX 15 24 8 0
BITMAP
7FFE
7FFE
C006
C004
000C
0018
0018
0030
0030
0060
0060
00C0
00C0
0180
0180
0300
0200
0600
0400
0C00
0800
1800
1000
1000
ENDCHAR

STARTCHAR eight
ENCODING 56
SWIDTH 600 0
DWIDTH 23 0
BBX 17 24 5 0
BITMAP
007800
01FE00
030300
060180
0C0180
080180
180180
180100
180300
1C0600
0E0C00
03F800
0FF800
1C0C00
300600
600600
400600
C00600
C00400
C00C00
601800
707000
3FE000
0F0000
ENDCHAR

STARTCHAR nine
ENCODING 57
SWIDTH 600 0
DWIDTH 23 0
BBX 17 24 5 0
BITMAP
003800
00FE00
038300
060180
040180
0C0180
080080
180080
180180
180180
180380
0C0780
0C1980
07F100
01C300
000300
000600
000600
000C00
001800
007000
01C000
FF0000
780000
ENDCHAR

STARTCHAR colon
ENCODING 58
SWIDTH 600 0
DWIDTH 23 0
BBX 8 17 9 0
BITMAP
0E
1F
3F
3E
1E
00
00
00
00
00
00
00
78
FC
FC
F8
70
ENDCHAR

STARTCHAR semicolon
ENCODING 59
SWIDTH 600 0
DWIDTH 23 0
BBX 12 20 7 -3
BITMAP
00E0
01F0
03F0
03E0
01C0
0000
0000
0000
0000
0000
0F80
0F00
1E00
1E00
3C00
3800
7000
6000
E000
C000
ENDCHAR

STARTCHAR less
ENCODING 60
SWIDTH 600 0
DWIDTH 23 0
BBX 20 19 4 1
BITMAP
000070
0001E0
000780
001E00
007800
01E000
078000
1E0000
F80000
700000
380000
0E0000
078000
01C000
007000
003800
000E00
000780
000100
ENDCHAR

STARTCHAR equal
ENCODING 61
SWIDTH 600 0
DWIDTH 23 0
BBX 20 8 4 7
BITMAP
7FFFF0
7FFFF0
000000
000000
000000
000000
FFFFE0
FFFFC0
ENDCHAR

STARTCHAR greater
ENCODING 62
SWIDTH 600 0
DWIDTH 23 0
BBX 20 19 3 1
BITMAP
0E0000
070000
01C000
00E000
003800
001E00
000700
0003C0
000060
0000F0
0003C0
000F00
003C00
00F000
03C000
0F0000
3C0000
F00000
C00000
ENDCHAR

STARTCHAR question
ENCODING 63
SWIDTH 600 0
DWIDTH 23 0
BBX 14 22 9 0
BITMAP
07C0
3FF0
6018
C00C
C00C
000C
000C
0008
0018
0070
01C0
0F00
0C00
0800
0800
0000
0000
0000
7800
FC00
FC00
7800
ENDCHAR

STARTCHAR at
ENCODING 64
SWIDTH 600 0
DWIDTH 23 0
BBX 17 27 5 -3
BITMAP
003C00
00FE00
038300
060180
0C0180
0C0180
180180
100100
300F00
303F00
20E300
21C300
618200
630600
630600
430600
418400
C1FE00
C07E00
C00000
C00000
C00000
400000
600000
703000
3FE000
0F0000
ENDCHAR

STARTCHAR A
ENCODING 65
SWIDTH 600 0
DWIDTH 23 0
BBX 23 22 1 0
BITMAP
00FF80
00FF80
000680
000CC0
000CC0
0018C0
001040
003040
002060
006060
00C060
00C060
018020
01FFE0
03FFF0
060030
060030
0C0030
080010
100010
FF01FE
7F01FC
ENDCHAR

STARTCHAR B
ENCODING 66
SWIDTH 600 0
DWIDTH 23 0
BBX 21 22 2 0
BITMAP
0FFF80
07FFE0
018030
010018
010018
030018
030018
030030
020070
0200E0
07FF80
07FFC0
0400E0
040030
040030
0C0030
080030
080060
080060
1801C0
FFFF00
FFFC00
ENDCHAR

STARTCHAR C
ENCODING 67
SWIDTH 600 0
DWIDTH 23 0
BBX 20 23 4 -1
BITMAP
003E00
01FF90
0381D0
060070
0C0070
180020
300020
200000
600000
600000
400000
400000
C00000
C00000
C00000
C00000
C00000
600080
600180
300300
180E00
0FF800
03C000
ENDCHAR

STARTCHAR D
ENCODING 68
SWIDTH 600 0
DWIDTH 23 0
BBX 21 22 3 0
BITMAP
0FFF00
07FFC0
0300E0
030030
020030
020018
060018
060018
060018
040018
040010
0C0010
0C0030
080030
080020
180060
1800C0
180180
100300
100600
FFFC00
FFE000
ENDCHAR

STARTCHAR E
ENCODING 69
SWIDTH 600 0
DWIDTH 23 0
BBX 22 22 2 0
BITMAP
0FFFFC
0FFFF8
010008
010018
030018
030018
030010
020600
020400
060400
07FC00
07FC00
040C00
040800
0C0000
0C0020
0C0060
080060
180060
180040
FFFFC0
FFFFC0
ENDCHAR

STARTCHAR F
ENCODING 70
SWIDTH 600 0
DWIDTH 23 0
BBX 23 22 3 0
BITMAP
07FFFE
07FFFE
008006
018004
018004
01800C
010004
030200
030600
030600
03FE00
03FC00
060400
060C00
060000
040000
040000
0C0000
0C0000
0C0000
FFF000
7FE000
ENDCHAR

STARTCHAR G
ENCODING 71
SWIDTH 600 0
DWIDTH 23 0
BBX 20 23 4 -1
BITMAP
003E00
00FFD0
0380F0
060030
0C0030
180020
300000
300000
600000
600000
400000
400000
C03FE0
C03FE0
C000C0
C00080
C00080
400180
600180
700180
3C0700
0FFE00
03E000
ENDCHAR

STARTCHAR H
ENCODING 72
SWIDTH 600 0
DWIDTH 23 0
BBX 23 22 2 0
BITMAP
07F0FE
03F0FE
010018
010018
030018
030030
030030
020030
060030
060020
07FFE0
07FFE0
060060
0C0060
0C0040
0C0040
0C00C0
0800C0
1800C0
180080
FF0FF0
7E07E0
ENDCHAR

STARTCHAR I
ENCODING 73
SWIDTH 600 0
DWIDTH 23 0
BBX 19 22 4 0
BITMAP
07FFE0
07FFE0
001000
001000
003000
003000
003000
002000
006000
006000
006000
004000
004000
00C000
00C000
00C000
008000
008000
018000
018000
FFFE00
7FFC00
ENDCHAR

STARTCHAR J
ENCODING 74
SWIDTH 600 0
DWIDTH 23 0
BBX 23 23 4 -1
BITMAP
007FFE
007FFC
0000C0
000080
000080
000180
000180
000180
000100
000100
000300
000300
200300
600200
400600
400600
C00600
C00400
C00C00
C01800
707000
3FC000
0F0000
ENDCHAR

STARTCHAR K
ENCODING 75
SWIDTH 600 0
DWIDTH 23 0
BBX 24 22 2 0
BITMAP
0FF87F
07F83E
018018
018070
0100C0
010180
030700
030C00
031800
027000
02FC00
078E00
070600
040300
040300
0C0180
0C0180
0C0180
080080
080080
FF80F0
7F00F0
ENDCHAR

STARTCHAR L
ENCODING 76
SWIDTH 600 0
DWIDTH 23 0
BBX 19 22 3 0
BITMAP
0FFE00
0FFC00
00C000
00C000
008000
008000
018000
018000
018000
010000
010000
030000
030000
020020
020020
060060
060060
060060
040040
040040
FFFFC0
FFFFC0
ENDCHAR

STARTCHAR M
ENCODING 77
SWIDTH 600 0
DWIDTH 23 0
BBX 26 22 1 0
BITMAP
0F8007C0
07C00F80
03C01A00
02C01A00
02403600
06602600
06606600
0460C400
04208C00
0C218C00
0C330C00
0C320800
08360800
081C1800
18181800
18001800
18001000
10001000
30003000
30003000
FF03FC00
FE03F800
ENDCHAR

STARTCHAR N
ENCODING 78
SWIDTH 600 0
DWIDTH 23 0
BBX 24 22 2 0
BITMAP
1F80FF
0F80FE
03C008
02C018
02C018
066018
066010
062010
043030
043030
0C1820
0C1820
0C0860
080C60
080C60
180440
180640
1006C0
1003C0
3003C0
FF0180
FE0180
ENDCHAR

STARTCHAR O
ENCODING 79
SWIDTH 600 0
DWIDTH 23 0
BBX 20 23 4 -1
BITMAP
003E00
00FF80
0381C0
0600E0
0C0060
180020
100030
300030
200030
600030
400030
C00030
C00020
C00060
C00060
C000C0
C000C0
600180
600300
300600
381C00
0FF000
03C000
ENDCHAR

STARTCHAR P
ENCODING 80
SWIDTH 600 0
DWIDTH 23 0
BBX 21 22 4 0
BITMAP
0FFF80
07FFE0
018070
018018
010018
010018
030018
030010
030030
020060
0201C0
07FF80
07FC00
040000
040000
0C0000
0C0000
0C0000
080000
080000
FFE000
7FE000
ENDCHAR

STARTCHAR Q
ENCODING 81
SWIDTH 600 0
DWIDTH 23 0
BBX 20 27 4 -5
BITMAP
003E00
00FF80
0381C0
0600E0
0C0060
180020
100030
300030
200030
600030
400030
C00030
C00020
C00060
C00060
C000C0
C000C0
600180
600300
300600
381C00
1FF000
03C000
0E0000
1FC180
7FFF00
601C00
ENDCHAR

STARTCHAR R
ENCODING 82
SWIDTH 600 0
DWIDTH 23 0
BBX 21 22 2 0
BITMAP
0FFF80
07FFE0
018030
018018
010018
010018
030018
030030
020060
0201C0
07FF00
07FC00
060600
040300
040180
0C0180
0C00C0
0C00C0
080040
080060
FF8078
7F0038
ENDCHAR

STARTCHAR S
ENCODING 83
SWIDTH 600 0
DWIDTH 23 0
BBX 20 23 3 -1
BITMAP
003E00
00FFB0
0180F0
030070
060020
0C0020
0C0020
0C0000
0C0000
070000
03F000
007F00
000380
0001C0
0000C0
0000C0
6000C0
600080
600180
700300
D80E00
DFFC00
03E000
ENDCHAR

STARTCHAR T
ENCODING 84
SWIDTH 600 0
DWIDTH 23 0
BBX 19 22 6 0
BITMAP
7FFFE0
7FFFC0
404040
40C0C0
C0C0C0
C0C0C0
C08080
808080
018000
018000
018000
010000
010000
030000
030000
030000
020000
020000
060000
060000
FFE000
FFE000
ENDCHAR

STARTCHAR U
ENCODING 85
SWIDTH 600 0
DWIDTH 23 0
BBX 21 23 5 -1
BITMAP
7F87F8
7F87F0
1800C0
1000C0
1000C0
300080
300080
300180
200180
200180
600100
600100
400300
400300
C00300
C00200
C00600
C00600
C00C00
601800
707000
3FE000
0F0000
ENDCHAR

STARTCHAR V
ENCODING 86
SWIDTH 600 0
DWIDTH 23 0
BBX 22 22 5 0
BITMAP
FF03FC
FE03FC
300060
300060
3000C0
300080
100180
100300
180300
180600
180400
080C00
081800
0C1800
0C3000
0C2000
0C6000
04C000
04C000
078000
070000
070000
ENDCHAR

STARTCHAR W
ENCODING 87
SWIDTH 600 0
DWIDTH 23 0
BBX 22 22 5 0
BITMAP
FF03FC
7F03F8
200020
600020
600060
60E060
60E040
60A0C0
61A0C0
413080
433180
423180
463100
C43300
CC3300
C83200
D83600
D03600
F01400
A01C00
E01C00
C01800
ENDCHAR

STARTCHAR X
ENCODING 88
SWIDTH 600 0
DWIDTH 23 0
BBX 24 22 1 0
BITMAP
07E03F
07E03F
018008
018010
00C020
00C040
006080
003100
003200
001C00
001800
001C00
002C00
004600
008600
010300
020180
040180
0800C0
100040
FE07F0
FE07F0
ENDCHAR

STARTCHAR Y
ENCODING 89
SWIDTH 600 0
DWIDTH 23 0
BBX 20 22 5 0
BITMAP
7E03F0
7E03F0
180080
180180
0C0300
0C0600
060C00
061800
033000
036000
01C000
018000
018000
018000
010000
010000
030000
030000
030000
020000
FFF000
7FF000
ENDCHAR

STARTCHAR Z
ENCODING 90
SWIDTH 600 0
DWIDTH 23 0
BBX 19 22 4 0
BITMAP
07FFE0
07FFC0
0400C0
040180
0C0300
0C0600
0C0400
000C00
001800
003000
006000
00C000
018000
030000
060180
0C0100
180100
300300
600300
C00200
FFFE00
FFFE00
ENDCHAR

STARTCHAR bracketleft
ENCODING 91
SWIDTH 600 0
DWIDTH 23 0
BBX 12 29 10 -5
BITMAP
03E0
07F0
0600
0400
0400
0C00
0C00
0C00
0800
0800
1800
1800
1800
1000
1000
3000
3000
3000
2000
2000
6000
6000
4000
4000
4000
C000
C000
FC00
FC00
ENDCHAR

STARTCHAR backslash
ENCODING 92
SWIDTH 600 0
DWIDTH 23 0
BBX 8 29 10 -3
BITMAP
80
80
C0
C0
C0
40
60
60
60
20
30
30
30
10
18
18
18
08
0C
0C
0C
04
06
06
06
02
03
03
01
ENDCHAR

STARTCHAR bracketright
ENCODING 93
SWIDTH 600 0
DWIDTH 23 0
BBX 12 29 5 -5
BITMAP
03F0
03F0
0030
0030
0020
0020
0060
0060
0040
0040
0040
00C0
00C0
0080
0080
0180
0180
0180
0100
0100
0300
0300
0300
0200
0200
0600
0600
FE00
FC00
ENDCHAR

STARTCHAR asciicircum
ENCODING 94
SWIDTH 600 0
DWIDTH 23 0
BBX 15 10 7 14
BITMAP
0040
00C0
01E0
0360
0630
0C18
1818
300C
600C
C006
ENDCHAR

STARTCHAR underscore
ENCODING 95
SWIDTH 600 0
DWIDTH 23 0
BBX 23 2 0 -5
BITMAP
FFFFFE
FFFFFE
ENDCHAR

STARTCHAR quoteleft
ENCODING 96
SWIDTH 600 0
DWIDTH 23 0
BBX 6 11 14 13
BITMAP
FC
7C
7C
3C
3C
3C
3C
1C
1C
1C
0C
ENDCHAR

STARTCHAR a
ENCODING 97
SWIDTH 600 0
DWIDTH 23 0
BBX 18 18 3 -1
BITMAP
007C00
07FF00
0E0300
000180
000180
000180
000100
03F900
0FFF00
3C0300
700300
600200
C00200
C00600
C01E00
6077C0
7FC780
1E0000
ENDCHAR

STARTCHAR b
ENCODING 98
SWIDTH 600 0
DWIDTH 23 0
BBX 22 25 1 -1
BITMAP
07C000
07C000
008000
008000
018000
018000
010000
010780
033FE0
037030
034018
038008
03000C
06000C
06000C
06000C
040008
040008
0C0018
0E0030
0E0020
0B00E0
FB8180
78FF00
003800
ENDCHAR

STARTCHAR c
ENCODING 99
SWIDTH 600 0
DWIDTH 23 0
BBX 18 18 4 -1
BITMAP
007800
03FF40
0603C0
1C01C0
1000C0
3000C0
600000
600000
400000
C00000
C00000
C00000
C00000
600180
600300
381E00
1FF800
07C000
ENDCHAR

STARTCHAR d
ENCODING 100
SWIDTH 600 0
DWIDTH 23 0
BBX 20 25 4 -1
BITMAP
0001F0
0000F0
000030
000030
000020
000020
000060
00F860
03FE60
0E0740
180340
1001C0
3001C0
6000C0
400080
400080
C00180
C00180
C00100
C00300
600700
600F00
383BE0
1FE3C0
078000
ENDCHAR

STARTCHAR e
ENCODING 101
SWIDTH 600 0
DWIDTH 23 0
BBX 18 17 4 0
BITMAP
00F800
03FE00
0E0300
180180
3000C0
6000C0
4000C0
7FFFC0
FFFFC0
C00000
C00000
C00000
600000
600100
380F00
1FFC00
03C000
ENDCHAR

STARTCHAR f
ENCODING 102
SWIDTH 600 0
DWIDTH 23 0
BBX 21 24 4 0
BITMAP
0007E0
001FF8
003000
006000
006000
004000
00C000
0FFFC0
0FFFC0
008000
008000
018000
018000
010000
010000
030000
030000
030000
020000
020000
060000
060000
FFFC00
7FFC00
ENDCHAR

STARTCHAR g
ENCODING 103
SWIDTH 600 0
DWIDTH 23 0
BBX 21 24 4 -7
BITMAP
00F0F0
07FCF8
0C0680
180380
300380
600180
400180
400100
C00100
C00300
C00300
400600
600A00
303E00
1FE600
078600
000400
000400
000C00
000800
001800
007000
7FE000
3F0000
ENDCHAR

STARTCHAR h
ENCODING 104
SWIDTH 600 0
DWIDTH 23 0
BBX 19 24 2 0
BITMAP
0F8000
078000
018000
018000
010000
030000
030000
031F00
027FC0
02C0C0
078060
070060
060060
040060
040040
0C00C0
0C00C0
0C00C0
080080
180080
180180
180180
FE0FE0
FE0FE0
ENDCHAR

STARTCHAR i
ENCODING 105
SWIDTH 600 0
DWIDTH 23 0
BBX 16 25 4 0
BITMAP
0018
0018
0038
0038
0000
0000
0000
0000
0FF0
07E0
0020
0060
0060
0060
0040
0040
00C0
00C0
00C0
0080
0080
0180
0180
FFFF
FFFE
ENDCHAR

STARTCHAR j
ENCODING 106
SWIDTH 600 0
DWIDTH 23 0
BBX 17 32 2 -7
BITMAP
000380
000300
000300
000300
000000
000000
000000
000000
07FF80
07FF00
000100
000300
000300
000300
000200
000200
000600
000600
000600
000400
000400
000C00
000C00
000C00
000800
000800
001800
001000
003000
006000
FFC000
FF0000
ENDCHAR

STARTCHAR k
ENCODING 107
SWIDTH 600 0
DWIDTH 23 0
BBX 20 24 2 0
BITMAP
07C000
07C000
008000
008000
018000
018000
018000
0107F0
0107F0
030380
030E00
021C00
023800
02C000
06E000
076000
063000
043800
0C1C00
0C0C00
0C0E00
080300
F80FE0
780FE0
ENDCHAR

STARTCHAR l
ENCODING 108
SWIDTH 600 0
DWIDTH 23 0
BBX 16 24 4 0
BITMAP
03F8
03F8
0018
0018
0010
0030
0030
0030
0020
0020
0060
0060
0060
0040
0040
00C0
00C0
00C0
0080
0080
0180
0180
FFFF
FFFE
ENDCHAR

STARTCHAR m
ENCODING 109
SWIDTH 600 0
DWIDTH 23 0
BBX 22 17 1 0
BITMAP
1E7070
1EF9F8
078D0C
060E0C
040C0C
0C0C0C
0C0C08
0C0818
080818
081818
181810
181810
181030
101030
103030
FC3C3C
FC3838
ENDCHAR

STARTCHAR n
ENCODING 110
SWIDTH 600 0
DWIDTH 23 0
BBX 19 17 2 0
BITMAP
1F0F00
0E7FC0
06C0C0
078060
070060
060060
040060
0C0040
0C00C0
0C00C0
0C00C0
080080
180080
180180
180180
FE07E0
FE07E0
ENDCHAR

STARTCHAR o
ENCODING 111
SWIDTH 600 0
DWIDTH 23 0
BBX 18 18 4 -1
BITMAP
007800
03FE00
0E0700
1C0180
100180
3000C0
6000C0
4000C0
C000C0
C000C0
C00080
C00180
C00300
600200
600E00
381800
1FF000
078000
ENDCHAR

STARTCHAR p
ENCODING 112
SWIDTH 600 0
DWIDTH 23 0
BBX 23 24 0 -7
BITMAP
0F83C0
079FF0
01B01C
01E00C
01C006
038006
030006
030006
030006
03000C
07000C
070018
078030
05C0E0
04FFC0
0C3E00
0C0000
0C0000
080000
180000
180000
180000
FF8000
FF8000
ENDCHAR

STARTCHAR q
ENCODING 113
SWIDTH 600 0
DWIDTH 23 0
BBX 22 24 4 -7
BITMAP
00F87C
07FE78
0E0740
1803C0
3001C0
6001C0
400080
400180
C00180
C00180
C00380
400700
600F00
301B00
1FF300
078200
000200
000600
000600
000600
000400
000400
01FF80
00FF80
ENDCHAR

STARTCHAR r
ENCODING 114
SWIDTH 600 0
DWIDTH 23 0
BBX 21 17 3 0
BITMAP
0FC0E0
07C3F0
00CE18
00B800
00B000
01C000
018000
018000
010000
030000
030000
030000
020000
020000
060000
FFFE00
7FFC00
ENDCHAR

STARTCHAR s
ENCODING 115
SWIDTH 600 0
DWIDTH 23 0
BBX 17 18 4 -1
BITMAP
00F800
03FE80
0E0380
0C0180
180180
180100
1C0000
0FC000
03FC00
000E00
000300
000300
400300
400200
E00600
F01C00
9FF800
07C000
ENDCHAR

STARTCHAR t
ENCODING 116
SWIDTH 600 0
DWIDTH 23 0
BBX 15 22 6 0
BITMAP
0600
0400
0C00
0C00
0800
FFFC
FFFE
1800
1800
1000
1000
3000
3000
3000
2000
2000
6000
6000
6004
301C
3FF8
0F80
ENDCHAR

STARTCHAR u
ENCODING 117
SWIDTH 600 0
DWIDTH 23 0
BBX 16 18 5 -1
BITMAP
F01F
F01F
3003
3003
3002
2002
2006
6006
6006
6004
4004
400C
C00C
C01C
C038
60EE
7F9E
1C00
ENDCHAR

STARTCHAR v
ENCODING 118
SWIDTH 600 0
DWIDTH 23 0
BBX 21 17 4 0
BITMAP
FF07F8
7F07F8
1800C0
180180
180180
080300
0C0200
0C0600
0C0C00
040800
041800
063000
062000
066000
024000
03C000
038000
ENDCHAR

STARTCHAR w
ENCODING 119
SWIDTH 600 0
DWIDTH 23 0
BBX 20 17 5 0
BITMAP
FC03F0
FC03F0
6000C0
6000C0
60C080
60C180
61E100
216300
236200
226200
266600
242400
2C2C00
282800
383800
303800
303000
ENDCHAR

STARTCHAR x
ENCODING 120
SWIDTH 600 0
DWIDTH 23 0
BBX 21 17 2 0
BITMAP
0FC1F8
0FC1F8
030060
0301C0
018380
00C600
006C00
003800
007800
00E800
018C00
030600
060300
1C0380
300080
FE0FE0
FE0FE0
ENDCHAR

STARTCHAR y
ENCODING 121
SWIDTH 600 0
DWIDTH 23 0
BBX 24 24 0 -7
BITMAP
07E03F
07E03F
03000C
010008
018018
018030
008060
00C040
00C0C0
00C180
004100
006300
006600
002400
003C00
003800
003000
002000
006000
00C000
008000
018000
FFE000
7FE000
ENDCHAR

STARTCHAR z
ENCODING 122
SWIDTH 600 0
DWIDTH 23 0
BBX 18 17 4 0
BITMAP
0FFFC0
0FFF80
080300
080600
180C00
001800
003000
006000
00C000
018000
030000
060000
0C0300
180200
300200
7FFE00
FFFE00
ENDCHAR

STARTCHAR braceleft
ENCODING 123
SWIDTH 600 0
DWIDTH 23 0
BBX 10 29 10 -5
BITMAP
00C0
03C0
0300
0600
0400
0400
0C00
0C00
0C00
0800
0800
1800
1800
7000
E000
7000
3000
3000
3000
2000
6000
6000
6000
6000
C000
C000
C000
7000
3000
ENDCHAR

STARTCHAR bar
ENCODING 124
SWIDTH 600 0
DWIDTH 23 0
BBX 2 29 10 -5
BITMAP
C0
C0
C0
C0
C0
C0
C0
C0
C0
C0
C0
C0
C0
C0
C0
C0
C0
C0
C0
C0
C0
C0
C0
C0
C0
C0
C0
C0
C0
ENDCHAR

STARTCHAR braceright
ENCODING 125
SWIDTH 600 0
DWIDTH 23 0
BBX 10 29 7 -5
BITMAP
0300
0380
00C0
00C0
00C0
0080
0080
0180
0180
0180
0300
0300
0300
0380
01C0
0380
0600
0600
0400
0400
0C00
0C00
0C00
0800
1800
1800
3000
F000
C000
ENDCHAR

STARTCHAR asciitilde
ENCODING 126
SWIDTH 600 0
DWIDTH 23 0
BBX 16 6 6 8
BITMAP
0C00
3F01
6303
C186
80FC
0070
ENDCHAR

STARTCHAR space
ENCODING 160
SWIDTH 600 0
DWIDTH 22 0
BBX 0 0 0 0
BITMAP
ENDCHAR

STARTCHAR exclamdown
ENCODING 161
SWIDTH 600 0
DWIDTH 23 0
BBX 8 24 9 -7
BITMAP
0E
1F
1F
0E
00
00
00
00
18
18
18
10
30
30
30
70
70
60
60
E0
E0
E0
E0
C0
ENDCHAR

STARTCHAR cent
ENCODING 162
SWIDTH 600 0
DWIDTH 23 0
BBX 15 25 6 0
BITMAP
0020
0060
0060
0040
0040
00C0
03FA
0E1E
1806
3006
6004
4000
C000
C000
C000
C000
C000
6018
3870
1FC0
0600
0400
0400
0C00
0400
ENDCHAR

STARTCHAR sterling
ENCODING 163
SWIDTH 600 0
DWIDTH 23 0
BBX 18 23 3 0
BITMAP
001E00
007F00
00C180
018080
010000
030000
030000
030000
030000
030000
3FF800
3FF000
030000
030000
030000
020000
060000
060000
0C00C0
0C0080
100180
FFFF00
7FFE00
ENDCHAR

STARTCHAR currency
ENCODING 164
SWIDTH 600 0
DWIDTH 23 0
BBX 17 15 5 4
BITMAP
100080
18F180
0DFB00
0E0C00
0C0600
180600
100600
300600
300400
300C00
101800
183800
77E800
C38C00
800400
ENDCHAR

STARTCHAR yen
ENCODING 165
SWIDTH 600 0
DWIDTH 23 0
BBX 19 22 6 0
BITMAP
FC07E0
FC07E0
300100
300200
180400
180C00
0C1800
0C3000
066000
06C000
038000
7FFC00
030000
030000
020000
FFF800
060000
060000
040000
040000
FFC000
FFC000
ENDCHAR

STARTCHAR brokenbar
ENCODING 166
SWIDTH 600 0
DWIDTH 23 0
BBX 2 29 10 -5
BITMAP
C0
C0
C0
C0
C0
C0
C0
C0
C0
C0
C0
C0
00
00
00
00
00
C0
C0
C0
C0
C0
C0
C0
C0
C0
C0
C0
C0
ENDCHAR

STARTCHAR section
ENCODING 167
SWIDTH 600 0
DWIDTH 23 0
BBX 20 26 3 -2
BITMAP
003FF0
006030
008020
018020
010020
010000
018000
0FC000
306000
203800
200C00
300600
180300
0C0080
030040
018040
006040
0030C0
001F80
000C00
000400
400400
400C00
400800
403000
FFE000
ENDCHAR

STARTCHAR dieresis
ENCODING 168
SWIDTH 600 0
DWIDTH 23 0
BBX 11 3 10 20
BITMAP
6060
E0E0
C0C0
ENDCHAR

STARTCHAR copyright
ENCODING 169
SWIDTH 600 0
DWIDTH 23 0
BBX 23 23 2 0
BITMAP
007C00
03F780
0E00E0
180030
300018
607C0C
408304
410106
C20106
820002
820002
820002
820002
820002
C10006
410104
60C204
303C08
100018
1C0030
0600E0
038380
00FE00
ENDCHAR

STARTCHAR ordfeminine
ENCODING 170
SWIDTH 600 0
DWIDTH 23 0
BBX 12 10 8 14
BITMAP
0FE0
1C70
0030
0030
1FE0
7060
4060
C0E0
C3C0
7EF0
ENDCHAR

STARTCHAR guillemotleft
ENCODING 171
SWIDTH 600 0
DWIDTH 23 0
BBX 20 17 4 0
BITMAP
006030
00E060
01C0C0
038380
0E0700
1C0E00
381C00
707800
E0F000
F07800
783800
381C00
1C0E00
0E0E00
060700
070380
030100
ENDCHAR

STARTCHAR logicalnot
ENCODING 172
SWIDTH 600 0
DWIDTH 23 0
BBX 20 11 3 1
BITMAP
FFFFF0
FFFFF0
000020
000020
000060
000060
000040
000040
0000C0
0000C0
000040
ENDCHAR

STARTCHAR hyphen
ENCODING 173
SWIDTH 600 0
DWIDTH 23 0
BBX 16 2 6 10
BITMAP
FFFF
FFFF
ENDCHAR

STARTCHAR registered
ENCODING 174
SWIDTH 600 0
DWIDTH 23 0
BBX 23 22 2 0
BITMAP
01FF00
0781C0
0C0060
180030
300008
63FC0C
408204
C08106
C08102
808102
808602
80F802
808402
C08202
408106
608104
23E0CC
100018
080030
060060
0383C0
007E00
ENDCHAR

STARTCHAR macron
ENCODING 175
SWIDTH 600 0
DWIDTH 23 0
BBX 11 2 10 20
BITMAP
FFE0
7FE0
ENDCHAR

STARTCHAR degree
ENCODING 176
SWIDTH 600 0
DWIDTH 23 0
BBX 10 10 11 18
BITMAP
1E00
7F80
6180
C0C0
C0C0
C0C0
E0C0
7180
3F80
1E00
ENDCHAR

STARTCHAR plusminus
ENCODING 177
SWIDTH 600 0
DWIDTH 23 0
BBX 19 23 3 0
BITMAP
000800
000800
000800
001800
001800
001000
001000
003000
003000
3FFFE0
3FFFE0
002000
006000
006000
006000
004000
004000
00C000
00C000
008000
000000
FFFF80
FFFF80
ENDCHAR

STARTCHAR twosuperior
ENCODING 178
SWIDTH 600 0
DWIDTH 23 0
BBX 11 12 7 12
BITMAP
07C0
1860
3020
0020
0060
00C0
0300
0600
1800
3000
C080
FF80
ENDCHAR

STARTCHAR threesuperior
ENCODING 179
SWIDTH 600 0
DWIDTH 23 0
BBX 11 13 7 11
BITMAP
07C0
1860
0020
0020
0060
0780
0180
00C0
0040
0040
00C0
C180
3E00
ENDCHAR

STARTCHAR acute
ENCODING 180
SWIDTH 600 0
DWIDTH 23 0
BBX 7 6 13 19
BITMAP
02
06
1C
30
60
C0
ENDCHAR

STARTCHAR mu
ENCODING 181
SWIDTH 600 0
DWIDTH 23 0
BBX 19 24 3 -7
BITMAP
3E07E0
3E07C0
040040
0400C0
0C00C0
0C00C0
0C0080
080080
080180
180180
180180
180100
100100
100700
300F00
383BC0
3FF380
278000
200000
600000
600000
400000
400000
C00000
ENDCHAR

STARTCHAR paragraph
ENCODING 182
SWIDTH 600 0
DWIDTH 23 0
BBX 19 26 6 -2
BITMAP
01FFE0
073100
1C2100
382300
302200
706200
604200
604200
604400
704400
38C400
1E8400
078C00
008800
008800
010800
010800
011800
011000
031000
021000
021000
022000
022000
042000
FE7C00
ENDCHAR

STARTCHAR periodcentered
ENCODING 183
SWIDTH 600 0
DWIDTH 23 0
BBX 6 5 11 9
BITMAP
38
7C
FC
F8
70
ENDCHAR

STARTCHAR cedilla
ENCODING 184
SWIDTH 600 0
DWIDTH 23 0
BBX 6 7 7 -6
BITMAP
08
18
10
1C
04
CC
78
ENDCHAR

STARTCHAR onesuperior
ENCODING 185
SWIDTH 600 0
DWIDTH 23 0
BBX 9 12 7 12
BITMAP
0300
1F00
0200
0200
0200
0600
0400
0400
0400
0C00
0800
FF80
ENDCHAR

STARTCHAR ordmasculine
ENCODING 186
SWIDTH 600 0
DWIDTH 23 0
BBX 13 10 9 14
BITMAP
0FE0
1C70
3018
6018
C018
C018
C030
4060
71C0
3F80
ENDCHAR

STARTCHAR guillemotright
ENCODING 187
SWIDTH 600 0
DWIDTH 23 0
BBX 21 17 3 0
BITMAP
080C00
0C0E00
0E0700
070300
038380
0381C0
01C0E0
00E0F0
00F078
01E0E0
0381C0
070380
0E0700
1C0C00
303800
E07000
406000
ENDCHAR

STARTCHAR onequarter
ENCODING 188
SWIDTH 600 0
DWIDTH 23 0
BBX 23 24 2 0
BITMAP
030000
3E0000
020000
060000
060000
040000
040006
0C001C
0C0070
0800E0
080380
FF8E00
001C1C
007028
01C058
0780D8
0E0190
380310
200610
000C30
000FF8
000020
000020
0001F0
ENDCHAR

STARTCHAR onehalf
ENCODING 189
SWIDTH 600 0
DWIDTH 23 0
BBX 23 24 2 0
BITMAP
030000
3E0000
020000
020000
060000
040000
040006
04001C
0C0070
0800E0
080380
FF8E00
0038F8
00730C
01C604
070004
1C000C
300010
600060
0000C0
000300
000600
001810
001FF0
ENDCHAR

STARTCHAR threequarters
ENCODING 190
SWIDTH 600 0
DWIDTH 23 0
BBX 23 24 2 0
BITMAP
07C000
186000
002000
002000
004000
078000
01C006
00401C
004070
00C1C0
C18700
7F0E00
00383C
00E068
0380D8
0E0198
1C0310
300210
000430
000FF8
000020
000020
000020
0001F0
ENDCHAR

STARTCHAR questiondown
ENCODING 191
SWIDTH 600 0
DWIDTH 23 0
BBX 14 24 4 -7
BITMAP
0078
00FC
00FC
0078
0000
0000
0000
0000
0040
00C0
00C0
03C0
0F00
1800
3000
6000
C000
C000
C004
C00C
6008
7038
3FF0
0F00
ENDCHAR

STARTCHAR Agrave
ENCODING 192
SWIDTH 600 0
DWIDTH 23 0
BBX 23 30 1 0
BITMAP
000400
000600
000700
000380
0001C0
0000C0
000000
000000
00FF80
00FF80
000680
000CC0
000CC0
0018C0
001040
003040
002060
006060
00C060
00C060
018020
01FFE0
03FFF0
060030
060030
0C0030
080010
100010
FF01FE
7F01FC
ENDCHAR

STARTCHAR Aacute
ENCODING 193
SWIDTH 600 0
DWIDTH 23 0
BBX 23 30 1 0
BITMAP
000010
000030
0000E0
000180
000300
000600
000000
000000
00FF80
00FF80
000680
000CC0
000CC0
0018C0
001040
003040
002060
006060
00C060
00C060
018020
01FFE0
03FFF0
060030
060030
0C0030
080010
100010
FF01FE
7F01FC
ENDCHAR

STARTCHAR Acircumflex
ENCODING 194
SWIDTH 600 0
DWIDTH 23 0
BBX 23 29 1 0
BITMAP
000180
0003C0
000E70
001838
003018
000000
000000
00FF80
00FF80
000680
000CC0
000CC0
0018C0
001040
003040
002060
006060
00C060
00C060
018020
01FFE0
03FFF0
060030
060030
0C0030
080010
100010
FF01FE
7F01FC
ENDCHAR

STARTCHAR Atilde
ENCODING 195
SWIDTH 600 0
DWIDTH 23 0
BBX 23 27 1 0
BITMAP
000E00
003F0C
0021F8
000060
000000
00FF80
00FF80
000680
000CC0
000CC0
0018C0
001040
003040
002040
006060
00C060
00C060
018020
01FFE0
03FFF0
060030
060030
0C0030
080010
100010
FF01FE
7F01FC
ENDCHAR

STARTCHAR Adieresis
ENCODING 196
SWIDTH 600 0
DWIDTH 23 0
BBX 22 28 1 0
BITMAP
001818
003838
003838
000000
000000
000000
00FF80
00FF80
000480
000C80
0008C0
0018C0
0030C0
0030C0
006040
004040
00C060
008060
010060
03FFE0
03FFE0
060020
040030
0C0030
180030
180030
FF03FC
FE01FC
ENDCHAR

STARTCHAR Aring
ENCODING 197
SWIDTH 600 0
DWIDTH 23 0
BBX 22 30 1 0
BITMAP
0003C0
000460
000820
000820
000CC0
000780
000000
000000
00FF80
00FF80
000480
000CC0
0008C0
0018C0
0030C0
003040
006040
004060
00C060
018060
010060
03FFE0
03FFE0
060030
0C0030
0C0030
180030
100010
FF03FC
FE01FC
ENDCHAR

STARTCHAR AE
ENCODING 198
SWIDTH 600 0
DWIDTH 23 0
BBX 26 22 1 0
BITMAP
007FFFC0
00FFFFC0
00198080
00110080
00310180
00230180
00630100
00430000
00C23000
00C63000
0187E000
0187E000
03046000
03FC2000
07FC0000
060C0000
0C0C0200
0C080600
18080600
10180400
FCFFFC00
FCFFFC00
ENDCHAR

STARTCHAR Ccedilla
ENCODING 199
SWIDTH 600 0
DWIDTH 23 0
BBX 20 28 4 -6
BITMAP
003C00
01FFB0
0301F0
0600E0
0C0060
180060
300060
200000
600000
600000
400000
400000
C00000
C00000
C00000
C00000
C00000
600080
600180
300700
181C00
0FF800
01C000
020000
038000
008000
188000
0F0000
ENDCHAR

STARTCHAR Egrave
ENCODING 200
SWIDTH 600 0
DWIDTH 23 0
BBX 22 30 2 0
BITMAP
000800
000C00
000600
000300
000180
000080
000000
000000
0FFFFC
0FFFF8
010008
010018
030018
030018
030010
020600
020400
060400
07FC00
07FC00
040C00
040800
0C0000
0C0020
0C0060
080060
180060
180040
FFFFC0
FFFFC0
ENDCHAR

STARTCHAR Eacute
ENCODING 201
SWIDTH 600 0
DWIDTH 23 0
BBX 22 30 2 0
BITMAP
000010
000060
0000C0
000380
000600
000C00
000000
000000
0FFFFC
0FFFF8
010008
010018
030018
030018
030010
020600
020400
060400
07FC00
07FC00
040C00
040800
0C0000
0C0020
0C0060
080060
180060
180040
FFFFC0
FFFFC0
ENDCHAR

STARTCHAR Ecircumflex
ENCODING 202
SWIDTH 600 0
DWIDTH 23 0
BBX 22 29 2 0
BITMAP
000380
0007C0
001CE0
003070
006030
000000
000000
0FFFFC
0FFFF8
010008
010018
030018
030018
030010
020600
020400
060400
07FC00
07FC00
040C00
040800
0C0000
0C0020
0C0060
080060
180060
180040
FFFFC0
FFFFC0
ENDCHAR

STARTCHAR Edieresis
ENCODING 203
SWIDTH 600 0
DWIDTH 23 0
BBX 22 28 2 0
BITMAP
001818
003838
003838
000000
000000
000000
0FFFFC
07FFFC
01800C
018008
010008
010018
030008
030200
030600
020600
03FC00
07FC00
060C00
060C00
040000
0C0030
0C0030
0C0020
080060
080060
FFFFE0
7FFFC0
ENDCHAR

STARTCHAR Igrave
ENCODING 204
SWIDTH 600 0
DWIDTH 23 0
BBX 19 30 4 0
BITMAP
002000
007000
003800
001C00
000E00
000600
000000
000000
07FFE0
07FFE0
001000
001000
003000
003000
003000
002000
006000
006000
006000
004000
004000
00C000
00C000
00C000
008000
008000
018000
018000
FFFE00
7FFC00
ENDCHAR

STARTCHAR Iacute
ENCODING 205
SWIDTH 600 0
DWIDTH 23 0
BBX 19 30 4 0
BITMAP
000080
000180
000700
000C00
003800
003000
000000
000000
07FFE0
07FFE0
001000
001000
003000
003000
003000
002000
006000
006000
006000
004000
004000
00C000
00C000
00C000
008000
008000
018000
018000
FFFE00
7FFC00
ENDCHAR

STARTCHAR Icircumflex
ENCODING 206
SWIDTH 600 0
DWIDTH 23 0
BBX 19 29 4 0
BITMAP
000C00
003E00
006300
01C180
0100C0
000000
000000
07FFE0
07FFE0
001000
001000
003000
003000
003000
002000
006000
006000
006000
004000
004000
00C000
00C000
00C000
008000
008000
018000
018000
FFFE00
7FFC00
ENDCHAR

STARTCHAR Idieresis
ENCODING 207
SWIDTH 600 0
DWIDTH 23 0
BBX 19 28 4 0
BITMAP
00C0C0
01C1C0
01C1C0
000000
000000
000000
07FFE0
07FFE0
001000
003000
003000
003000
002000
002000
006000
006000
006000
004000
004000
00C000
00C000
008000
008000
018000
018000
018000
FFFE00
7FFC00
ENDCHAR

STARTCHAR Gbreve
ENCODING 208
SWIDTH 600 0
DWIDTH 23 0
BBX 20 29 4 -1
BITMAP
006010
006030
003060
003FC0
000F00
000000
003E00
01FFD0
0380F0
060070
0C0030
180020
300000
200000
600000
600000
400000
400000
C03FE0
C03FE0
C00080
C00080
C00180
400180
600100
700100
380700
0FFC00
03E000
ENDCHAR

STARTCHAR Ntilde
ENCODING 209
SWIDTH 600 0
DWIDTH 23 0
BBX 24 27 2 0
BITMAP
000600
001F8C
0031F8
000060
000000
1F80FE
0F80FF
03C008
02C018
02C018
066018
066010
062010
043030
043030
0C1820
0C1820
0C0860
080C60
080C60
180440
180640
1006C0
1003C0
3003C0
FF0180
FE0180
ENDCHAR

STARTCHAR Ograve
ENCODING 210
SWIDTH 600 0
DWIDTH 23 0
BBX 20 30 4 -1
BITMAP
001800
000C00
000E00
000700
000380
000080
000000
003E00
00FF80
0381C0
0600E0
0C0060
180020
100030
300030
200030
600030
400030
C00030
C00020
C00060
C00060
C000C0
C000C0
600180
600300
300600
381C00
0FF000
03C000
ENDCHAR

STARTCHAR Oacute
ENCODING 211
SWIDTH 600 0
DWIDTH 23 0
BBX 20 30 4 -1
BITMAP
000060
0000C0
000380
000600
000C00
000000
000000
003E00
00FF80
0381C0
0600E0
0C0060
180020
100030
300030
200030
600030
400030
C00030
C00020
C00060
C00060
C000C0
C000C0
600180
600300
300600
381C00
0FF000
03C000
ENDCHAR

STARTCHAR Ocircumflex
ENCODING 212
SWIDTH 600 0
DWIDTH 23 0
BBX 20 30 4 -1
BITMAP
000100
000700
001DC0
0038E0
006070
004020
000000
003E00
00FF80
0381C0
0600E0
0C0060
180020
100030
300030
200030
600030
400030
C00030
C00020
C00060
C00060
C000C0
C000C0
600180
600300
300600
381C00
0FF000
03C000
ENDCHAR

STARTCHAR Otilde
ENCODING 213
SWIDTH 600 0
DWIDTH 23 0
BBX 20 28 4 -1
BITMAP
001800
007E30
00C7E0
0001C0
000000
003E00
00FF80
0381C0
0600E0
0C0060
180020
100030
300030
200030
600030
400030
C00030
C00020
C00060
C00060
C000C0
C000C0
600180
600300
300600
381C00
0FF000
03C000
ENDCHAR

STARTCHAR Odieresis
ENCODING 214
SWIDTH 600 0
DWIDTH 23 0
BBX 20 28 4 -1
BITMAP
003030
007070
006060
000000
000000
003E00
00FF80
0381C0
0600E0
0C0060
180020
100030
300030
200030
600030
400030
C00030
C00020
C00060
C00060
C000C0
C000C0
600180
600300
300600
381C00
0FF000
03C000
ENDCHAR

STARTCHAR multiply
ENCODING 215
SWIDTH 600 0
DWIDTH 23 0
BBX 14 13 8 4
BITMAP
200C
3018
1830
0CE0
0EC0
0380
0700
0E80
18C0
3060
6060
C030
4000
ENDCHAR

STARTCHAR Oslash
ENCODING 216
SWIDTH 600 0
DWIDTH 23 0
BBX 24 25 2 -2
BITMAP
000001
000F83
003FE6
00E07C
018018
030038
060068
0400CC
0C018C
18030C
18060C
100C0C
30180C
303008
306018
30C018
318030
330030
1E0060
1C00C0
1C0180
360700
63FC00
C0F000
800000
ENDCHAR

STARTCHAR Ugrave
ENCODING 217
SWIDTH 600 0
DWIDTH 23 0
BBX 21 31 5 -1
BITMAP
004000
006000
003000
001800
000C00
000400
000000
000000
7F87F8
7F87F0
1800C0
1000C0
1000C0
300080
300080
300180
200180
200180
600100
600100
400300
400300
C00300
C00200
C00600
C00600
C00C00
601800
707000
3FE000
0F0000
ENDCHAR

STARTCHAR Uacute
ENCODING 218
SWIDTH 600 0
DWIDTH 23 0
BBX 21 31 5 -1
BITMAP
000080
000380
000600
001C00
003800
002000
000000
000000
7F87F8
7F87F0
1800C0
1000C0
1000C0
300080
300080
300180
200180
200180
600100
600100
400300
400300
C00300
C00200
C00600
C00600
C00C00
601800
707000
3FE000
0F0000
ENDCHAR

STARTCHAR Ucircumflex
ENCODING 219
SWIDTH 600 0
DWIDTH 23 0
BBX 21 30 5 -1
BITMAP
001C00
003E00
00E700
01C380
030080
000000
000000
7F87F8
7F87F0
1800C0
1000C0
1000C0
300080
300080
300180
200180
200180
600100
600100
400300
400300
C00300
C00200
C00600
C00600
C00C00
601800
707000
3FE000
0F0000
ENDCHAR

STARTCHAR Udieresis
ENCODING 220
SWIDTH 600 0
DWIDTH 23 0
BBX 21 29 5 -1
BITMAP
00C0C0
01C1C0
01C1C0
000000
000000
000000
7F87F8
7F83F8
180040
180040
1000C0
3000C0
3000C0
300080
200080
200180
600180
600180
600100
400100
C00300
C00300
C00200
C00600
C00C00
601800
703000
1FE000
078000
ENDCHAR

STARTCHAR Idotaccent
ENCODING 221
SWIDTH 600 0
DWIDTH 23 0
BBX 19 28 5 0
BITMAP
001C00
003C00
003C00
001800
000000
000000
0FFFE0
07FFC0
003000
003000
002000
002000
006000
006000
006000
004000
004000
00C000
00C000
008000
008000
018000
018000
018000
010000
010000
FFFC00
FFFC00
ENDCHAR

STARTCHAR Scedilla
ENCODING 222
SWIDTH 600 0
DWIDTH 23 0
BBX 20 29 3 -7
BITMAP
003E00
00FFB0
0180F0
030070
060060
040020
0C0020
0C0000
0C0000
060000
03C000
00FE00
000F00
000180
0000C0
0000C0
2000C0
6000C0
600180
600380
700700
DC1E00
CFF800
018000
010000
01C000
004000
0CC000
078000
ENDCHAR

STARTCHAR germandbls
ENCODING 223
SWIDTH 600 0
DWIDTH 23 0
BBX 19 25 2 -1
BITMAP
000E00
003F80
00E180
00C0C0
0180C0
0180C0
0100C0
030180
030300
031E00
031F00
020180
0600C0
060040
060060
040060
0C0060
0C0060
0C0040
082040
1860C0
186180
FC6300
FC3E00
001C00
ENDCHAR

STARTCHAR agrave
ENCODING 224
SWIDTH 600 0
DWIDTH 23 0
BBX 18 26 3 -1
BITMAP
003000
003000
001800
000C00
000600
000200
000000
000000
007C00
07FF00
0E0300
000180
000180
000180
000100
03F900
0FFF00
3C0300
700300
600200
C00200
C00600
C01E00
6077C0
7FC780
1E0000
ENDCHAR

STARTCHAR aacute
ENCODING 225
SWIDTH 600 0
DWIDTH 23 0
BBX 18 26 3 -1
BITMAP
0000C0
000180
000300
000E00
001800
001000
000000
000000
007C00
07FF00
0E0300
000180
000180
000180
000100
03F900
0FFF00
3C0300
700300
600200
C00200
C00600
C01E00
6077C0
7FC780
1E0000
ENDCHAR

STARTCHAR acircumflex
ENCODING 226
SWIDTH 600 0
DWIDTH 23 0
BBX 18 26 3 -1
BITMAP
000200
000E00
001B00
007180
00C0C0
018040
000000
000000
007C00
07FF00
0E0300
000180
000180
000180
000100
03F900
0FFF00
3C0300
700300
600200
C00200
C00600
C01E00
6077C0
7FC780
1E0000
ENDCHAR

STARTCHAR atilde
ENCODING 227
SWIDTH 600 0
DWIDTH 23 0
BBX 19 24 3 -1
BITMAP
003000
00FC60
018FC0
000380
000000
000000
007C00
07FF00
0E0300
000180
000180
000180
000100
03F900
0FFF00
3C0300
700300
600200
C00200
C00600
C01E00
6077C0
7FC780
1E0000
ENDCHAR

STARTCHAR adieresis
ENCODING 228
SWIDTH 600 0
DWIDTH 23 0
BBX 19 24 3 -1
BITMAP
006060
00E0E0
00E0E0
000000
000000
000000
007C00
07FF00
0E0300
000180
000180
000180
000100
03F900
0FFF00
3C0100
700300
600200
C00200
C00600
C01E00
607BC0
7FE780
1F0000
ENDCHAR

STARTCHAR aring
ENCODING 229
SWIDTH 600 0
DWIDTH 23 0
BBX 18 26 3 -1
BITMAP
000F00
001180
002080
002080
003300
001E00
000000
000000
007C00
07FF00
0E0300
000180
000180
000180
000100
03F900
0FFF00
3C0300
700300
600200
C00200
C00600
C01E00
6077C0
7FE780
1F0000
ENDCHAR

STARTCHAR ae
ENCODING 230
SWIDTH 600 0
DWIDTH 23 0
BBX 23 18 1 -1
BITMAP
00E070
07F9F8
061B8C
000E0C
000E06
000C06
000C06
03F806
1FFFFE
381FFC
601800
C01800
C03800
C03800
C07818
61EC38
3F2FE0
1C0300
ENDCHAR

STARTCHAR ccedilla
ENCODING 231
SWIDTH 600 0
DWIDTH 23 0
BBX 18 23 4 -6
BITMAP
007C00
03FF40
0603C0
1C01C0
1800C0
3000C0
600000
400000
400000
C00000
C00000
C00000
C00000
600180
600300
380E00
1FF800
07C000
020000
030000
008000
118000
0F0000
ENDCHAR

STARTCHAR egrave
ENCODING 232
SWIDTH 600 0
DWIDTH 23 0
BBX 18 25 4 0
BITMAP
003000
003800
001800
000C00
000600
000200
000000
000000
00F800
03FE00
0E0300
180180
3000C0
6000C0
4000C0
7FFFC0
FFFFC0
C00000
C00000
C00000
600000
600100
380F00
1FFC00
03C000
ENDCHAR

STARTCHAR eacute
ENCODING 233
SWIDTH 600 0
DWIDTH 23 0
BBX 18 25 4 0
BITMAP
0000C0
000180
000300
000E00
001800
001000
000000
000000
00F800
03FE00
0E0300
180180
3000C0
6000C0
4000C0
7FFFC0
FFFFC0
C00000
C00000
C00000
600000
600100
380F00
1FFC00
03C000
ENDCHAR

STARTCHAR ecircumflex
ENCODING 234
SWIDTH 600 0
DWIDTH 23 0
BBX 18 25 4 0
BITMAP
000200
000E00
001B00
007180
01C0C0
008040
000000
000000
00F800
03FE00
0E0300
180180
3000C0
6000C0
4000C0
7FFFC0
FFFFC0
C00000
C00000
C00000
600000
600100
380F00
1FFC00
03C000
ENDCHAR

STARTCHAR edieresis
ENCODING 235
SWIDTH 600 0
DWIDTH 23 0
BBX 19 23 4 0
BITMAP
006060
00E0E0
00E0E0
000000
000000
000000
00F800
03FE00
0E0300
180180
3000C0
6000C0
4000C0
7FFFC0
FFFFC0
C00000
C00000
C00000
600000
600100
380F00
1FFC00
03E000
ENDCHAR

STARTCHAR igrave
ENCODING 236
SWIDTH 600 0
DWIDTH 23 0
BBX 16 25 4 0
BITMAP
0060
0070
0038
001C
000C
0000
0000
0000
0FF0
07E0
0020
0060
0060
0060
0040
0040
00C0
00C0
00C0
0080
0180
0180
0180
FFFF
FFFE
ENDCHAR

STARTCHAR iacute
ENCODING 237
SWIDTH 600 0
DWIDTH 23 0
BBX 17 25 4 0
BITMAP
000380
000600
000C00
003800
006000
000000
000000
000000
0FF000
07E000
002000
006000
006000
006000
004000
004000
00C000
00C000
00C000
008000
018000
018000
018000
FFFF00
FFFE00
ENDCHAR

STARTCHAR icircumflex
ENCODING 238
SWIDTH 600 0
DWIDTH 23 0
BBX 17 25 4 0
BITMAP
000800
003C00
006600
01C380
030180
000000
000000
000000
0FF000
07E000
002000
006000
006000
006000
004000
004000
00C000
00C000
00C000
008000
018000
018000
018000
FFFF00
FFFE00
ENDCHAR

STARTCHAR idieresis
ENCODING 239
SWIDTH 600 0
DWIDTH 23 0
BBX 18 23 3 0
BITMAP
00C0C0
01C1C0
018180
000000
000000
000000
07F000
07F000
003000
003000
002000
006000
006000
006000
004000
004000
00C000
00C000
00C000
008000
008000
FFFF00
7FFF00
ENDCHAR

STARTCHAR gbreve
ENCODING 240
SWIDTH 600 0
DWIDTH 23 0
BBX 20 31 4 -7
BITMAP
006010
006030
003060
003FC0
000F00
000000
000000
01F0F0
07FCF0
0C0F80
180780
300300
600300
400300
C00300
C00300
C00200
C00600
C00E00
601E00
703600
3FE400
0F0400
000C00
000C00
000800
001800
003000
006000
7FC000
3F0000
ENDCHAR

STARTCHAR ntilde
ENCODING 241
SWIDTH 600 0
DWIDTH 23 0
BBX 20 23 2 0
BITMAP
003800
00FC30
0187E0
000380
000000
000000
1F1F00
0E7FC0
06C0C0
078060
070060
060060
040060
0C0040
0C00C0
0C00C0
0C00C0
080080
180080
180180
180180
FE07E0
FE07E0
ENDCHAR

STARTCHAR ograve
ENCODING 242
SWIDTH 600 0
DWIDTH 23 0
BBX 18 26 4 -1
BITMAP
003000
003800
001C00
000C00
000700
000200
000000
000000
007800
03FE00
0E0700
1C0180
100180
3000C0
6000C0
4000C0
C000C0
C000C0
C00080
C00180
C00300
600200
600E00
381800
1FF000
078000
ENDCHAR

STARTCHAR oacute
ENCODING 243
SWIDTH 600 0
DWIDTH 23 0
BBX 18 26 4 -1
BITMAP
0000C0
000180
000300
000E00
001800
001000
000000
000000
007800
03FE00
0E0700
1C0180
100180
3000C0
6000C0
4000C0
C000C0
C000C0
C00080
C00180
C00300
600200
600E00
381800
1FF000
078000
ENDCHAR

STARTCHAR ocircumflex
ENCODING 244
SWIDTH 600 0
DWIDTH 23 0
BBX 19 26 4 -1
BITMAP
000200
000E00
001B00
007180
00E0E0
008040
000000
000000
007800
03FE00
0E0700
1C0180
100180
3000C0
6000C0
4000C0
C000C0
C000C0
C00080
C00180
C00300
600200
600E00
381800
1FF000
078000
ENDCHAR

STARTCHAR otilde
ENCODING 245
SWIDTH 600 0
DWIDTH 23 0
BBX 19 24 4 -1
BITMAP
003000
00FC60
018FC0
000380
000000
000000
00F800
03FE00
0E0700
1C0180
300180
3000C0
6000C0
4000C0
C000C0
C000C0
C00080
C00180
C00300
600200
600E00
381800
1FF000
078000
ENDCHAR

STARTCHAR odieresis
ENCODING 246
SWIDTH 600 0
DWIDTH 23 0
BBX 19 24 4 -1
BITMAP
006060
00E0E0
00E0E0
000000
000000
000000
007800
03FE00
060700
1C0180
100180
3000C0
6000C0
4000C0
C000C0
C000C0
C00080
C00180
C00300
600200
600E00
381800
1FF000
078000
ENDCHAR

STARTCHAR divide
ENCODING 247
SWIDTH 600 0
DWIDTH 23 0
BBX 18 18 5 2
BITMAP
003000
007000
007000
000000
000000
000000
000000
000000
FFFFC0
FFFF80
000000
000000
000000
000000
000000
038000
038000
030000
ENDCHAR

STARTCHAR oslash
ENCODING 248
SWIDTH 600 0
DWIDTH 23 0
BBX 23 20 2 -2
BITMAP
000002
001F0E
00FFD8
01C0F0
030070
0600D0
0C0398
180718
100C18
101818
303018
306010
31C030
330060
1A00C0
1C0180
1E0700
77FE00
E0F000
800000
ENDCHAR

STARTCHAR ugrave
ENCODING 249
SWIDTH 600 0
DWIDTH 23 0
BBX 16 26 5 -1
BITMAP
0060
0030
0018
001E
000C
0000
0000
0000
F01F
F01F
3003
3003
3002
2002
2006
6006
6006
6004
4004
400C
C00C
C01C
C038
60EE
7F9E
1C00
ENDCHAR

STARTCHAR uacute
ENCODING 250
SWIDTH 600 0
DWIDTH 23 0
BBX 17 26 5 -1
BITMAP
000180
000700
000C00
001800
003000
000000
000000
000000
F01F00
F01F00
300300
300300
300200
200200
200600
600600
600600
600400
400400
400C00
C00C00
C01C00
C03800
60EE00
7F9E00
1C0000
ENDCHAR

STARTCHAR ucircumflex
ENCODING 251
SWIDTH 600 0
DWIDTH 23 0
BBX 17 26 5 -1
BITMAP
000800
001E00
007700
01C380
038180
000000
000000
000000
F01F00
F01F00
300300
300300
300200
200200
200600
600600
600600
600400
400400
400C00
C00C00
C01C00
C03800
60EE00
7F9E00
1C0000
ENDCHAR

STARTCHAR udieresis
ENCODING 252
SWIDTH 600 0
DWIDTH 23 0
BBX 18 24 5 -1
BITMAP
00C0C0
01C1C0
018180
000000
000000
000000
F81F80
F01F00
300300
300300
300300
200200
200200
600600
600600
600600
400400
400400
C00C00
C01C00
C03C00
60EF00
7F8E00
1E0000
ENDCHAR

STARTCHAR dotlessi
ENCODING 253
SWIDTH 600 0
DWIDTH 23 0
BBX 16 17 4 0
BITMAP
0FF0
07E0
0020
0060
0060
0060
0040
0040
00C0
00C0
00C0
0080
0180
0180
0180
FFFF
FFFE
ENDCHAR

STARTCHAR scedilla
ENCODING 254
SWIDTH 600 0
DWIDTH 23 0
BBX 17 23 4 -6
BITMAP
00F800
03FE80
0E0380
080180
180180
180080
1C0000
0FE000
03FC00
000E00
000300
000300
400300
400200
E00600
F81C00
9FF000
030000
020000
038000
008000
198000
0F0000
ENDCHAR

STARTCHAR ydieresis
ENCODING 255
SWIDTH 600 0
DWIDTH 23 0
BBX 24 30 0 -7
BITMAP
000C0C
001C1C
001818
000000
000000
000000
07E03F
07E03F
03000C
010008
018018
018030
008060
00C040
00C0C0
00C180
004100
006300
006600
002400
003C00
003800
003000
002000
006000
00C000
008000
018000
FFE000
7FE000
ENDCHAR
ENDFONT
